<svg width="550" height="550" viewBox="0 0 550 550" fill="none" xmlns="http://www.w3.org/2000/svg">
<g clip-path="url(#clip0_8_364)">
<rect width="550" height="550" fill="#F5F7FB"/>
<path fill-rule="evenodd" clip-rule="evenodd" d="M-38.919 490.964C-10.8241 489.073 20.4975 482.126 40.8434 499.547C63.3629 518.829 69.9281 550.059 61.4141 576.875C53.3376 602.313 28.2818 620.992 -0.0909882 628.475C-23.9759 634.775 -45.6063 620.093 -68.3914 611.11C-92.9153 601.441 -125.606 598.575 -133.794 575.761C-142.333 551.971 -124.677 527.028 -104.912 509.362C-87.7687 494.04 -63.0936 492.592 -38.919 490.964Z" fill="#DEEBF8"/>
<path fill-rule="evenodd" clip-rule="evenodd" d="M487.409 71.3947C459.121 40.8508 421.318 11.7816 425.173 -29.6933C429.439 -75.599 463.854 -115.359 506.419 -133.133C546.797 -149.994 594.035 -140.256 629.822 -115.149C659.947 -94.0141 660.823 -53.8756 670.141 -18.271C680.17 20.0508 706.521 60.8106 684.501 93.7792C661.538 128.159 612.991 133.432 571.931 128.768C536.318 124.723 511.751 97.6768 487.409 71.3947Z" fill="#FFFAD1"/>
<path d="M244.534 506.065C244.305 504.411 243.032 503.451 241.381 503.451C239.436 503.451 237.97 504.869 237.97 507.276C237.97 509.68 239.418 511.102 241.381 511.102C243.152 511.102 244.327 509.956 244.534 508.535L243.174 508.527C243.003 509.4 242.29 509.891 241.4 509.891C240.192 509.891 239.327 508.985 239.327 507.276C239.327 505.596 240.185 504.662 241.403 504.662C242.309 504.662 243.018 505.175 243.174 506.065H244.534ZM247.028 507.727C247.028 506.92 247.53 506.455 248.235 506.455C248.926 506.455 249.333 506.895 249.333 507.647V511H250.65V507.444C250.65 506.095 249.886 505.342 248.726 505.342C247.868 505.342 247.322 505.731 247.064 506.364H246.999V503.553H245.711V511H247.028V507.727ZM254.464 511.109C255.766 511.109 256.66 510.473 256.893 509.502L255.664 509.364C255.486 509.836 255.05 510.084 254.482 510.084C253.631 510.084 253.068 509.524 253.057 508.567H256.948V508.164C256.948 506.204 255.77 505.342 254.395 505.342C252.795 505.342 251.751 506.516 251.751 508.24C251.751 509.993 252.78 511.109 254.464 511.109ZM253.06 507.68C253.1 506.967 253.628 506.367 254.413 506.367C255.17 506.367 255.679 506.92 255.686 507.68H253.06ZM260.498 511.109C261.901 511.109 262.796 510.276 262.89 509.091H261.632C261.52 509.691 261.087 510.036 260.509 510.036C259.687 510.036 259.156 509.349 259.156 508.207C259.156 507.08 259.698 506.404 260.509 506.404C261.141 506.404 261.53 506.811 261.632 507.349H262.89C262.8 506.138 261.854 505.342 260.49 505.342C258.854 505.342 257.821 506.524 257.821 508.229C257.821 509.92 258.829 511.109 260.498 511.109ZM263.971 511H265.288V509.124L265.768 508.611L267.477 511H269.051L266.76 507.825L268.924 505.415H267.386L265.379 507.658H265.288V503.553H263.971V511ZM273.949 511.113C274.825 511.113 275.349 510.702 275.589 510.233H275.632V511H276.898V507.262C276.898 505.785 275.694 505.342 274.629 505.342C273.454 505.342 272.552 505.865 272.261 506.884L273.49 507.058C273.621 506.676 273.992 506.349 274.636 506.349C275.247 506.349 275.581 506.662 275.581 507.211V507.233C275.581 507.611 275.185 507.629 274.2 507.735C273.116 507.851 272.08 508.175 272.08 509.433C272.08 510.531 272.883 511.113 273.949 511.113ZM274.29 510.145C273.741 510.145 273.349 509.895 273.349 509.411C273.349 508.905 273.789 508.695 274.378 508.611C274.723 508.564 275.414 508.476 275.585 508.338V508.996C275.585 509.618 275.083 510.145 274.29 510.145ZM279.538 507.727C279.538 506.92 280.025 506.455 280.72 506.455C281.4 506.455 281.807 506.902 281.807 507.647V511H283.123V507.444C283.127 506.105 282.363 505.342 281.21 505.342C280.374 505.342 279.8 505.742 279.545 506.364H279.48V505.415H278.221V511H279.538V507.727ZM288.876 506.891C288.694 505.945 287.938 505.342 286.629 505.342C285.283 505.342 284.367 506.004 284.37 507.036C284.367 507.851 284.869 508.389 285.941 508.611L286.894 508.811C287.407 508.924 287.647 509.131 287.647 509.447C287.647 509.829 287.232 510.116 286.607 510.116C286.003 510.116 285.61 509.855 285.498 509.353L284.214 509.476C284.378 510.502 285.24 511.109 286.61 511.109C288.007 511.109 288.992 510.385 288.996 509.327C288.992 508.531 288.48 508.044 287.425 507.815L286.472 507.611C285.905 507.484 285.68 507.287 285.683 506.964C285.68 506.585 286.098 506.324 286.647 506.324C287.254 506.324 287.574 506.655 287.676 507.022L288.876 506.891ZM291.234 511H292.609L293.656 507.225H293.732L294.78 511H296.15L297.732 505.415H296.387L295.42 509.32H295.365L294.361 505.415H293.034L292.03 509.342H291.98L290.998 505.415H289.656L291.234 511ZM300.974 511.109C302.276 511.109 303.17 510.473 303.403 509.502L302.174 509.364C301.996 509.836 301.56 510.084 300.992 510.084C300.141 510.084 299.578 509.524 299.567 508.567H303.458V508.164C303.458 506.204 302.28 505.342 300.905 505.342C299.305 505.342 298.261 506.516 298.261 508.24C298.261 509.993 299.29 511.109 300.974 511.109ZM299.57 507.68C299.61 506.967 300.138 506.367 300.923 506.367C301.68 506.367 302.189 506.92 302.196 507.68H299.57ZM304.571 511H305.888V507.716C305.888 507.007 306.422 506.505 307.146 506.505C307.368 506.505 307.644 506.545 307.757 506.582V505.371C307.637 505.349 307.43 505.335 307.284 505.335C306.644 505.335 306.11 505.698 305.906 506.345H305.848V505.415H304.571V511ZM313.046 506.891C312.864 505.945 312.108 505.342 310.799 505.342C309.453 505.342 308.537 506.004 308.54 507.036C308.537 507.851 309.039 508.389 310.111 508.611L311.064 508.811C311.577 508.924 311.817 509.131 311.817 509.447C311.817 509.829 311.402 510.116 310.777 510.116C310.173 510.116 309.78 509.855 309.668 509.353L308.384 509.476C308.548 510.502 309.41 511.109 310.78 511.109C312.177 511.109 313.162 510.385 313.166 509.327C313.162 508.531 312.65 508.044 311.595 507.815L310.642 507.611C310.075 507.484 309.85 507.287 309.853 506.964C309.85 506.585 310.268 506.324 310.817 506.324C311.424 506.324 311.744 506.655 311.846 507.022L313.046 506.891Z" fill="#F5F7FB"/>
</g>
<defs>
<clipPath id="clip0_8_364">
<rect width="550" height="550" fill="white"/>
</clipPath>
</defs>
</svg>
